<?xml version="1.0" encoding="UTF-8" standalone="no"?>
<svg
   xmlns:dc="http://purl.org/dc/elements/1.1/"
   xmlns:cc="http://creativecommons.org/ns#"
   xmlns:rdf="http://www.w3.org/1999/02/22-rdf-syntax-ns#"
   xmlns:svg="http://www.w3.org/2000/svg"
   xmlns="http://www.w3.org/2000/svg"
   xmlns:sodipodi="http://sodipodi.sourceforge.net/DTD/sodipodi-0.dtd"
   xmlns:inkscape="http://www.inkscape.org/namespaces/inkscape"
   inkscape:version="1.0 (4035a4fb49, 2020-05-01)"
   sodipodi:docname="linkedin.svg"
   xml:space="preserve"
   enable-background="new 0 0 20 20"
   viewBox="0 0 20 20"
   y="0px"
   x="0px"
   id="LinkedIn_w_x2F__circle"
   version="1.1"><metadata
   id="metadata9"><rdf:RDF><cc:Work
       rdf:about=""><dc:format>image/svg+xml</dc:format><dc:type
         rdf:resource="http://purl.org/dc/dcmitype/StillImage" /></cc:Work></rdf:RDF></metadata><defs
   id="defs7" /><sodipodi:namedview
   inkscape:current-layer="LinkedIn_w_x2F__circle"
   inkscape:window-maximized="0"
   inkscape:window-y="0"
   inkscape:window-x="0"
   inkscape:cy="9.7080113"
   inkscape:cx="8.7333911"
   inkscape:zoom="15.026019"
   showgrid="false"
   id="namedview5"
   height="20px"
   width="20px"
   inkscape:window-height="480"
   inkscape:window-width="640"
   inkscape:pageshadow="2"
   inkscape:pageopacity="0"
   guidetolerance="10"
   gridtolerance="10"
   objecttolerance="10"
   borderopacity="1"
   bordercolor="#666666"
   pagecolor="#ffffff" />
<path
   style="fill:#808080"
   id="path2"
   d="M10,0.4c-5.302,0-9.6,4.298-9.6,9.6s4.298,9.6,9.6,9.6s9.6-4.298,9.6-9.6S15.302,0.4,10,0.4z M7.65,13.979  H5.706V7.723H7.65V13.979z M6.666,6.955c-0.614,0-1.011-0.435-1.011-0.973c0-0.549,0.409-0.971,1.036-0.971s1.011,0.422,1.023,0.971  C7.714,6.52,7.318,6.955,6.666,6.955z M14.75,13.979h-1.944v-3.467c0-0.807-0.282-1.355-0.985-1.355  c-0.537,0-0.856,0.371-0.997,0.728c-0.052,0.127-0.065,0.307-0.065,0.486v3.607H8.814v-4.26c0-0.781-0.025-1.434-0.051-1.996h1.689  l0.089,0.869h0.039c0.256-0.408,0.883-1.01,1.932-1.01c1.279,0,2.238,0.857,2.238,2.699V13.979z"
   fill="#FFFFFF" />
</svg>
